<svg xmlns="http://www.w3.org/2000/svg" viewBox="0 0 169.707 49.708">
  <defs>
    <style>
      .cls-1 {
        fill: none;
        stroke: #2e2f4f;
      }
    </style>
  </defs>
  <path id="Intersection_13" data-name="Intersection 13" class="cls-1" d="M1795.129,433.5l9.371-9.371Zm-10,0L1804.5,414.13Zm-10,0,29.371-29.371Zm-10,0L1804.5,394.13Zm-10,0,49-49Zm-10,0,49-49Zm-10,0,49-49Zm-10,0,49-49Zm-10,0,49-49Zm-10,0,49-49Zm-10,0,49-49Zm-10,0,49-49Zm-10,0,49-49Zm-10,0,49-49Zm-10,0,49-49Zm-10,0,49-49Zm-9.629-.371,48.63-48.63Zm0-10,38.63-38.63Zm0-10,28.63-28.63Zm0-10,18.63-18.63Zm0-10,8.629-8.629Z" transform="translate(-1635.146 -384.146)"/>
</svg>
