<svg xmlns="http://www.w3.org/2000/svg" viewBox="0 0 570.725 20.689">
  <defs>
    <style>
      .cls-1 {
        fill: none;
        stroke: #fff;
      }
    </style>
  </defs>
  <path id="Intersection_15" data-name="Intersection 15" class="cls-1" d="M2394.251,797.473l8.249-8.668Zm-10.018,0,18.267-19.195Zm-10.017,0,19.033-20Zm-10.018,0,19.033-20Zm-10.018,0,19.033-20Zm-10.018,0,19.033-20Zm-10.016,0,19.033-20Zm-10.019,0,19.033-20Zm-10.017,0,19.033-20Zm-10.019,0,19.033-20Zm-10.017,0,19.033-20Zm-10.018,0,19.033-20Zm-11.149,0,19.033-20Zm-9.2,0,19.033-20Zm-10.018,0,19.033-20Zm-10.018,0,19.033-20Zm-10.018,0,19.033-20Zm-10.017,0,19.033-20Zm-10.018,0,19.033-20Zm-10.017,0,19.033-20Zm-10.018,0,19.033-20Zm-10.017,0,19.033-20Zm-10.017,0,19.033-20Zm-10.018,0,19.033-20Zm-10.018,0,19.033-20Zm-10.016,0,19.033-20Zm-10.018,0,19.033-20Zm-10.018,0,19.033-20Zm-10.018,0,19.033-20Zm-10.017,0,19.033-20Zm-10.018,0,19.033-20Zm-10.018,0,19.033-20Zm-10.018,0,19.033-20Zm-10.017,0,19.033-20Zm-10.018,0,19.033-20Zm-10.018,0,19.033-20Zm-10.018,0,19.033-20Zm-11.148,0,19.033-20Zm-9.2,0,19.033-20Zm-10.018,0,19.033-20Zm-10.018,0,19.033-20Zm-10.016,0,19.033-20Zm-10.018,0,19.033-20Zm-10.017,0,19.033-20Zm-10.017,0,19.033-20Zm-10.018,0,19.033-20Zm-10.017,0,19.033-20Zm-10.018,0,19.033-20Zm-10.018,0,19.033-20Zm-10.017,0,19.033-20Zm-10.018,0,19.033-20Zm-10.017,0,19.033-20Zm-10.017,0,19.033-20Zm-10.017,0,19.033-20Zm-10.018,0,19.033-20Zm-10.018,0,19.033-20Zm-10.018,0,19.033-20Zm-.133-10.385,9.15-9.615Z" transform="translate(-1832.138 -777.128)"/>
</svg>
