<svg width="44" height="38" viewBox="0 0 44 38" fill="none" xmlns="http://www.w3.org/2000/svg">
<path d="M1.69999 7.79997L8.7 7.16997C8.7 10.88 8.567 7.79997 9.4 20.47C9.41974 20.7609 9.61775 21.0091 9.897 21.093L16.722 23.137L30.596 37.683C30.8303 37.923 31.2018 37.9631 31.482 37.7787C31.7621 37.5942 31.872 37.237 31.744 36.927L26.2 23.816L26.977 19.448L28.832 18.048L42.405 15.388C42.6738 15.3347 42.8868 15.1295 42.9501 14.8629C43.0133 14.5963 42.9152 14.3173 42.699 14.149L38.429 10.852L42.72 7.65997C42.9498 7.49803 43.0605 7.2143 43.0009 6.93953C42.9414 6.66476 42.7233 6.45227 42.447 6.39997L29.147 3.59997C28.888 3.55097 29.707 3.35497 18.311 6.60997C18.206 6.50497 18.906 7.04397 9.82 0.225973C9.56693 0.0285982 9.21206 0.0285982 8.959 0.225973L1.25899 6.52597C1.00101 6.70483 0.893643 7.03357 0.99633 7.33022C1.09902 7.62687 1.38664 7.81889 1.69999 7.79997ZM10.8 19.868L10.289 12.7L15.546 21.31L10.8 19.868ZM29 33.952L18.395 22.843L23.687 21.254C25.213 25.076 24.142 22.5 29 33.952ZM40.676 14.352L31.436 16.123L37.295 11.727L40.676 14.352ZM29.56 5.13297L40.641 7.46397L27.341 17.425L29.56 5.13297ZM28.111 5.27997L25.241 21.38L24.751 20.155C24.6339 19.7993 24.2576 19.5988 23.897 19.7L17.415 21.646L10.478 10.32L28.111 5.27997ZM10.1 2.19997L16.309 6.85497L10.1 8.95497V2.19997ZM8.7 2.27697V5.77697L3.912 6.21097L8.7 2.27697Z" fill="#333333"/>
</svg>
