<svg width="42" height="48" viewBox="0 0 42 48" fill="none" xmlns="http://www.w3.org/2000/svg">
<path d="M36.7935 0.557419C36.7935 0.371613 36.6696 0.247742 36.5458 0.123871C36.4219 0 36.2361 0 36.1122 0L13.1961 2.9729H13.1342H0.685158C0.313545 2.9729 0.0658035 3.22065 0.0658035 3.59226V47.3187C0.0658035 47.6903 0.313545 48 0.685158 48H34.1303C34.5019 48 34.7496 47.7523 34.7496 47.3806V43.5406L41.3767 42.7355C41.6864 42.6735 41.9341 42.3639 41.9341 42.0542L36.7935 0.557419ZM33.5109 46.6994H1.30451V4.21161H33.5109V46.6994ZM34.7496 42.24V3.59226C34.7496 3.22065 34.5019 2.9729 34.1303 2.9729H22.6103L35.6787 1.30065L40.6954 41.5587L34.7496 42.24Z" fill="#333333"/>
</svg>
